<svg width="103" height="99" viewBox="0 0 103 99" fill="none" xmlns="http://www.w3.org/2000/svg">
<path d="M40.2887 20.2739C44.651 40.9019 39.5182 66.2889 1 74.6019C19.3071 72.9021 47.6545 72.5863 62.7113 78.7224C58.349 58.0944 63.4818 32.7074 102 24.3944C83.693 26.0942 55.3455 26.41 40.2887 20.2739Z" fill="#A7DDD8"/>
<path d="M33.258 1.32609C32.9373 0.735513 32.6099 1.08001 32.4863 1.32608C27.0536 10.6559 31.3059 16.6131 40.2887 20.2739C38.7646 13.0666 36.0814 6.44023 33.258 1.32609Z" fill="#D5F5F2"/>
<path d="M69.742 97.6702C69.8599 97.9191 70.1793 98.2675 70.5137 97.6702C75.9464 88.3404 71.6941 82.3832 62.7113 78.7224C64.2354 85.9297 66.9186 92.556 69.742 97.6702Z" fill="#D5F5F2"/>
<path d="M40.2887 20.2739C44.651 40.9019 39.5182 66.2889 1 74.6019C19.3071 72.9021 47.6545 72.5863 62.7113 78.7224M40.2887 20.2739C55.3455 26.41 83.693 26.0942 102 24.3944C63.4818 32.7074 58.349 58.0944 62.7113 78.7224M40.2887 20.2739C31.3059 16.6131 27.0536 10.6559 32.4863 1.32608C32.6099 1.08001 32.9373 0.735513 33.258 1.32609C36.0814 6.44023 38.7646 13.0666 40.2887 20.2739ZM62.7113 78.7224C64.2354 85.9297 66.9186 92.556 69.742 97.6702C69.8599 97.9191 70.1793 98.2675 70.5137 97.6702C75.9464 88.3404 71.6941 82.3832 62.7113 78.7224Z" stroke="black"/>
</svg>
